#N canvas 229 22 784 599 10;
#X floatatom 267 237 5 0 0 0 - - -;
#X obj 277 132 f;
#X obj 258 217 random 4;
#X obj 180 216 random 2;
#X floatatom 189 238 5 0 0 0 - - -;
#X obj 277 157 t b b f;
#X obj 180 272 sel 0 1;
#X obj 313 347 +;
#X obj 277 84 tgl 15 0 empty empty empty 0 -6 0 8 -262144 -1 -1 0 1
;
#X obj 258 271 + 1;
#X floatatom 396 172 5 0 0 0 - - -;
#X obj 236 328 *;
#X msg 180 301 -1;
#X obj 396 102 moses 0;
#X obj 470 102 moses 100;
#X obj 396 126 * -1;
#X obj 561 105 * -1;
#X obj 561 130 + 200;
#X msg 214 301 1;
#X text 193 28 Random walk generator;
#X text 297 83 on/off;
#X text 452 171 output;
#X text 189 254 sign;
#X text 267 253 magnitude;
#X text 357 332 add prev value;
#X text 354 349 to random increment;
#X text 410 49 coercion to range 0-100 \; if out of range \, reflect
;
#X text 409 79 us back in.;
#X obj 448 477 noteout 1;
#X msg 539 344 80;
#X obj 521 312 t f b f b;
#X msg 628 379 0;
#X obj 587 380 float;
#X obj 632 358 bng 15 250 50 0 empty empty empty 17 7 0 10 -262144
-1 -1;
#X floatatom 405 257 5 0 0 0 - - -;
#X obj 277 106 metro 100;
#X obj 391 204 + 60;
#X obj 619 322 delay 55;
#X connect 1 0 5 0;
#X connect 2 0 0 0;
#X connect 2 0 9 0;
#X connect 3 0 4 0;
#X connect 3 0 6 0;
#X connect 5 0 3 0;
#X connect 5 1 2 0;
#X connect 5 2 7 1;
#X connect 6 0 12 0;
#X connect 6 1 18 0;
#X connect 7 0 13 0;
#X connect 8 0 35 0;
#X connect 9 0 11 1;
#X connect 10 0 1 1;
#X connect 10 0 36 0;
#X connect 11 0 7 0;
#X connect 12 0 11 0;
#X connect 13 0 15 0;
#X connect 13 1 14 0;
#X connect 14 0 10 0;
#X connect 14 1 16 0;
#X connect 15 0 10 0;
#X connect 16 0 17 0;
#X connect 17 0 10 0;
#X connect 18 0 11 0;
#X connect 29 0 28 1;
#X connect 30 0 28 0;
#X connect 30 1 29 0;
#X connect 30 2 32 1;
#X connect 30 3 37 0;
#X connect 31 0 28 1;
#X connect 32 0 28 0;
#X connect 33 0 31 0;
#X connect 33 0 32 0;
#X connect 35 0 1 0;
#X connect 36 0 30 0;
#X connect 36 0 34 0;
#X connect 37 0 33 0;
