#N canvas 524 47 772 553 10;
#X obj 327 422 noteout 1;
#X obj 321 194 bng 15 250 50 0 empty empty empty 17 7 0 10 -262144
-1 -1;
#X obj 223 168 bng 15 250 50 0 empty empty empty 17 7 0 10 -262144
-1 -1;
#X obj 224 92 tgl 15 0 empty empty empty 17 7 0 10 -262144 -1 -1 0
1;
#X floatatom 220 306 5 0 0 0 - - -;
#X obj 272 295 + 48;
#X obj 276 252 random 64;
#X obj 224 120 metro 50;
#X msg 352 251 0;
#X msg 426 288 60;
#X msg 488 288 65;
#X obj 435 223 bng 15 250 50 0 empty empty empty 17 7 0 10 -262144
-1 -1;
#X obj 501 232 bng 15 250 50 0 empty empty empty 17 7 0 10 -262144
-1 -1;
#X obj 570 231 bng 15 250 50 0 empty empty empty 17 7 0 10 -262144
-1 -1;
#X msg 455 288 0;
#X msg 521 286 0;
#X msg 590 286 0;
#X msg 556 287 69;
#X connect 1 0 8 0;
#X connect 1 0 6 0;
#X connect 2 0 1 0;
#X connect 3 0 7 0;
#X connect 5 0 0 0;
#X connect 5 0 4 0;
#X connect 6 0 5 0;
#X connect 7 0 2 0;
#X connect 8 0 0 1;
#X connect 9 0 0 0;
#X connect 10 0 0 0;
#X connect 11 0 9 0;
#X connect 11 0 14 0;
#X connect 12 0 10 0;
#X connect 12 0 15 0;
#X connect 13 0 17 0;
#X connect 13 0 16 0;
#X connect 14 0 0 1;
#X connect 15 0 0 1;
#X connect 16 0 0 1;
#X connect 17 0 0 0;
